# xmcd CD database file generated by Grip 3.3.1
# 
# Track frame offsets:
#       150
#       43038
#       79563
#       111663
#       123738
#       137688
#       152763
# 
# Disc length: 2375 seconds
# 
# Revision: 1
# Processed by: cddbd v1.5.2PL0 Copyright (c) Steve Scherf et al.
# Submitted via: Grip 3.3.1
# 
DISCID=5d094507
DTITLE=Giancarlo Simonacci - Pizzetti Complete Piano Works CD 2
DYEAR=2011
DGENRE=Alternative
TTITLE0=1. Sonata  (1942) Assai mosso e arioso, ma non troppo vivace
TTITLE1=2. Sonata  (1942) Adagio
TTITLE2=3. Sonata  (1942) Turbinoso
TTITLE3=1. Canti di ricordanza (1943) Molto largo
TTITLE4=2. Canti di ricordanza (1943) Allegro moderato (quasi marcia)
TTITLE5=3. Canti di ricordanza (1943) Appassionato
TTITLE6=4. Canti di ricordanza (1943) Andante largo
EXTD=
EXTT0=
EXTT1=
EXTT2=
EXTT3=
EXTT4=
EXTT5=
EXTT6=
PLAYORDER=
